<svg width="200" height="43" viewBox="0 0 200 43" fill="none" xmlns="http://www.w3.org/2000/svg">
<path d="M21.5 0C18.6766 -3.3669e-08 15.8808 0.556114 13.2723 1.63659C10.6638 2.71707 8.29366 4.30074 6.2972 6.2972C4.30074 8.29366 2.71707 10.6638 1.63659 13.2723C0.556114 15.8808 -8.97467e-08 18.6766 0 21.5C8.97467e-08 24.3234 0.556114 27.1192 1.63659 29.7277C2.71707 32.3362 4.30075 34.7063 6.2972 36.7028C8.29366 38.6993 10.6638 40.2829 13.2723 41.3634C15.8808 42.4439 18.6766 43 21.5 43L21.5 21.5V0Z" fill="white"/>
<path d="M193.064 31.4634C191.509 31.4634 190.171 31.146 189.05 30.5112C187.935 29.8697 187.076 28.9638 186.472 27.7933C185.869 26.6163 185.567 25.2243 185.567 23.6174C185.567 22.0502 185.869 20.6747 186.472 19.491C187.076 18.3074 187.925 17.3849 189.02 16.7236C190.122 16.0623 191.414 15.7317 192.897 15.7317C193.894 15.7317 194.822 15.8937 195.681 16.2177C196.547 16.5352 197.301 17.0146 197.944 17.656C198.593 18.2974 199.098 19.1042 199.459 20.0763C199.82 21.0417 200 22.1725 200 23.4686V24.6291H187.24V22.0105H196.055C196.055 21.4021 195.924 20.8632 195.661 20.3937C195.399 19.9242 195.035 19.5572 194.569 19.2927C194.11 19.0215 193.576 18.886 192.966 18.886C192.329 18.886 191.765 19.0348 191.273 19.3323C190.788 19.6233 190.408 20.0168 190.132 20.5127C189.857 21.0021 189.716 21.5476 189.709 22.1494V24.6391C189.709 25.3929 189.847 26.0443 190.122 26.5931C190.404 27.142 190.801 27.5652 191.313 27.8628C191.824 28.1603 192.431 28.3091 193.133 28.3091C193.598 28.3091 194.025 28.243 194.412 28.1108C194.799 27.9785 195.13 27.7801 195.405 27.5156C195.681 27.2511 195.891 26.9271 196.035 26.5435L199.911 26.8014C199.715 27.7404 199.311 28.5604 198.701 29.2614C198.098 29.9557 197.317 30.498 196.36 30.8881C195.409 31.2716 194.31 31.4634 193.064 31.4634Z" fill="white"/>
<path d="M184.821 15.3873V18.518H175.258V15.3873H184.821ZM177.447 30.4146V14.3014C177.447 13.2122 177.665 12.3088 178.102 11.5914C178.546 10.8739 179.151 10.3358 179.918 9.97711C180.685 9.61839 181.556 9.43903 182.531 9.43903C183.19 9.43903 183.792 9.48794 184.336 9.58578C184.888 9.68361 185.298 9.77166 185.567 9.84993L184.8 12.9806C184.632 12.9284 184.424 12.8795 184.175 12.8339C183.933 12.7882 183.684 12.7654 183.428 12.7654C182.796 12.7654 182.356 12.9089 182.107 13.1959C181.858 13.4763 181.734 13.8709 181.734 14.3796V30.4146H177.447Z" fill="white"/>
<path d="M164.765 31.4634C163.81 31.4634 162.958 31.2947 162.211 30.9572C161.464 30.6131 160.872 30.1069 160.437 29.4386C160.008 28.7637 159.794 27.9234 159.794 26.9176C159.794 26.0706 159.947 25.3593 160.252 24.7836C160.557 24.208 160.973 23.7448 161.5 23.3941C162.026 23.0434 162.624 22.7787 163.293 22.6001C163.969 22.4214 164.677 22.2957 165.418 22.2229C166.289 22.1303 166.99 22.0442 167.523 21.9648C168.056 21.8788 168.443 21.7531 168.683 21.5877C168.923 21.4222 169.044 21.1774 169.044 20.8532V20.7936C169.044 20.165 168.849 19.6787 168.459 19.3346C168.075 18.9905 167.53 18.8185 166.821 18.8185C166.074 18.8185 165.48 18.9872 165.038 19.3247C164.596 19.6555 164.303 20.0724 164.16 20.5753L160.32 20.2577C160.515 19.3313 160.898 18.5307 161.47 17.8557C162.042 17.1742 162.78 16.6515 163.683 16.2875C164.593 15.917 165.645 15.7317 166.841 15.7317C167.673 15.7317 168.469 15.831 169.229 16.0295C169.996 16.228 170.675 16.5357 171.266 16.9525C171.864 17.3694 172.335 17.9054 172.679 18.5604C173.024 19.2089 173.196 19.9864 173.196 20.8929V31.1756H169.258V29.0615H169.141C168.901 29.5379 168.579 29.9581 168.176 30.322C167.773 30.6793 167.289 30.9605 166.724 31.1657C166.159 31.3642 165.506 31.4634 164.765 31.4634ZM165.954 28.5454C166.565 28.5454 167.104 28.4229 167.572 28.1781C168.04 27.9267 168.407 27.5892 168.673 27.1657C168.94 26.7422 169.073 26.2625 169.073 25.7266V24.1087C168.943 24.1947 168.764 24.2741 168.537 24.3469C168.316 24.4131 168.066 24.476 167.786 24.5355C167.507 24.5884 167.227 24.6381 166.948 24.6844C166.669 24.7241 166.415 24.7605 166.188 24.7936C165.7 24.8664 165.275 24.9821 164.911 25.141C164.547 25.2998 164.264 25.5148 164.063 25.7861C163.862 26.0508 163.761 26.3816 163.761 26.7786C163.761 27.3543 163.966 27.7943 164.375 28.0987C164.791 28.3965 165.317 28.5454 165.954 28.5454Z" fill="white"/>
<path d="M153.503 16.636C153.427 15.8322 153.099 15.2077 152.52 14.7626C151.941 14.3176 151.155 14.095 150.162 14.095C149.488 14.095 148.918 14.1947 148.454 14.394C147.989 14.5866 147.633 14.8557 147.385 15.2011C147.143 15.5465 147.022 15.9385 147.022 16.3769C147.009 16.7423 147.082 17.0612 147.241 17.3335C147.407 17.6059 147.633 17.8417 147.919 18.041C148.205 18.2337 148.536 18.4031 148.912 18.5492C149.287 18.6887 149.688 18.8083 150.115 18.9079L151.871 19.3464C152.724 19.5457 153.506 19.8114 154.219 20.1436C154.932 20.4757 155.549 20.8843 156.071 21.3692C156.593 21.8542 156.997 22.4255 157.283 23.0831C157.576 23.7408 157.726 24.4948 157.732 25.3451C157.726 26.594 157.42 27.6768 156.816 28.5936C156.217 29.5037 155.352 30.2112 154.219 30.7161C153.093 31.2143 151.734 31.4634 150.143 31.4634C148.565 31.4634 147.19 31.211 146.019 30.7061C144.855 30.2012 143.945 29.4539 143.289 28.4641C142.64 27.4676 142.3 26.2353 142.268 24.7672H146.268C146.312 25.4514 146.5 26.0227 146.831 26.4811C147.168 26.9328 147.617 27.2749 148.177 27.5075C148.743 27.7333 149.383 27.8462 150.095 27.8462C150.795 27.8462 151.403 27.74 151.919 27.5274C152.441 27.3148 152.845 27.0192 153.131 26.6405C153.417 26.2619 153.561 25.8267 153.561 25.3352C153.561 24.8768 153.43 24.4915 153.169 24.1793C152.915 23.867 152.539 23.6013 152.043 23.3821C151.553 23.1629 150.951 22.9636 150.239 22.7842L148.11 22.2262C146.462 21.8077 145.16 21.1533 144.206 20.2631C143.251 19.373 142.777 18.1739 142.784 16.6659C142.777 15.4303 143.092 14.3508 143.729 13.4274C144.371 12.504 145.253 11.7832 146.373 11.2651C147.493 10.7469 148.765 10.4878 150.191 10.4878C151.642 10.4878 152.908 10.7469 153.99 11.2651C155.078 11.7832 155.925 12.504 156.529 13.4274C157.134 14.3508 157.446 15.4203 157.465 16.636H153.503Z" fill="white"/>
<path d="M129.349 36.7073C128.847 36.7073 128.377 36.6643 127.937 36.5782C127.504 36.4987 127.145 36.3961 126.86 36.2703L127.751 33.1121C128.216 33.2643 128.634 33.3471 129.005 33.3604C129.383 33.3736 129.708 33.2809 129.981 33.0823C130.259 32.8836 130.485 32.546 130.659 32.0692L130.891 31.4237L125.773 15.7317H129.934L132.888 26.9346H133.036L136.017 15.7317H140.206L134.661 32.6353C134.395 33.4564 134.033 34.1714 133.575 34.7806C133.123 35.3963 132.55 35.8697 131.857 36.2008C131.163 36.5385 130.327 36.7073 129.349 36.7073Z" fill="white"/>
<path d="M117.271 31.4634C115.827 31.4634 114.585 31.146 113.543 30.5112C112.508 29.8697 111.71 28.9638 111.15 27.7933C110.589 26.6163 110.309 25.2243 110.309 23.6174C110.309 22.0502 110.589 20.6747 111.15 19.491C111.71 18.3074 112.499 17.3849 113.516 16.7236C114.539 16.0623 115.739 15.7317 117.115 15.7317C118.041 15.7317 118.903 15.8937 119.701 16.2177C120.505 16.5352 121.205 17.0146 121.802 17.656C122.405 18.2974 122.874 19.1042 123.209 20.0763C123.544 21.0417 123.711 22.1725 123.711 23.4686V24.6291H111.862V22.0105H120.048C120.048 21.4021 119.926 20.8632 119.683 20.3937C119.439 19.9242 119.101 19.5572 118.668 19.2927C118.242 19.0215 117.746 18.886 117.179 18.886C116.589 18.886 116.065 19.0348 115.608 19.3323C115.157 19.6233 114.804 20.0168 114.548 20.5127C114.292 21.0021 114.161 21.5476 114.155 22.1494V24.6391C114.155 25.3929 114.283 26.0443 114.539 26.5931C114.801 27.142 115.169 27.5652 115.645 27.8628C116.12 28.1603 116.683 28.3091 117.335 28.3091C117.767 28.3091 118.163 28.243 118.522 28.1108C118.882 27.9785 119.189 27.7801 119.445 27.5156C119.701 27.2511 119.896 26.9271 120.03 26.5435L123.629 26.8014C123.446 27.7404 123.072 28.5604 122.505 29.2614C121.945 29.9557 121.22 30.498 120.331 30.8881C119.448 31.2716 118.428 31.4634 117.271 31.4634Z" fill="white"/>
<path d="M97.8464 22.0352V30.4146H93.8144V15.9204H97.6571V18.4777H97.8275C98.1493 17.6347 98.6888 16.9679 99.4459 16.4772C100.203 15.9802 101.121 15.7317 102.2 15.7317C103.21 15.7317 104.09 15.9519 104.841 16.3922C105.592 16.8326 106.175 17.4617 106.592 18.2795C107.008 19.091 107.216 20.0598 107.216 21.1859V30.4146H103.185V21.9031C103.191 21.016 102.964 20.3241 102.503 19.8271C102.042 19.3238 101.408 19.0722 100.601 19.0722C100.058 19.0722 99.5784 19.1885 99.162 19.4213C98.7519 19.6541 98.4301 19.9938 98.1966 20.4404C97.9694 20.8808 97.8527 21.4124 97.8464 22.0352Z" fill="white"/>
<path d="M83.5052 31.4634C82.0224 31.4634 80.7401 31.1361 79.6583 30.4814C78.5828 29.8201 77.7523 28.901 77.1669 27.7239C76.5814 26.5402 76.2887 25.1681 76.2887 23.6075C76.2887 22.0336 76.5814 20.6582 77.1669 19.4811C77.7523 18.2974 78.5828 17.3783 79.6583 16.7236C80.7401 16.0623 82.0224 15.7317 83.5052 15.7317C84.9879 15.7317 86.267 16.0623 87.3425 16.7236C88.4243 17.3783 89.258 18.2974 89.8435 19.4811C90.4289 20.6582 90.7217 22.0336 90.7217 23.6075C90.7217 25.1681 90.4289 26.5402 89.8435 27.7239C89.258 28.901 88.4243 29.8201 87.3425 30.4814C86.267 31.1361 84.9879 31.4634 83.5052 31.4634ZM83.5243 28.1901C84.1988 28.1901 84.762 27.9917 85.2138 27.595C85.6657 27.1916 86.0061 26.6427 86.2352 25.9484C86.4707 25.254 86.5884 24.4638 86.5884 23.5777C86.5884 22.6916 86.4707 21.9014 86.2352 21.2071C86.0061 20.5127 85.6657 19.9639 85.2138 19.5605C84.762 19.1571 84.1988 18.9554 83.5243 18.9554C82.8433 18.9554 82.2706 19.1571 81.806 19.5605C81.3478 19.9639 81.001 20.5127 80.7656 21.2071C80.5365 21.9014 80.4219 22.6916 80.4219 23.5777C80.4219 24.4638 80.5365 25.254 80.7656 25.9484C81.001 26.6427 81.3478 27.1916 81.806 27.595C82.2706 27.9917 82.8433 28.1901 83.5243 28.1901Z" fill="white"/>
<path d="M51.5464 10.4878H56.754L62.2541 23.8761H62.4882L67.9883 10.4878H73.1959V30.4146H69.1V17.4447H68.9342L63.7657 30.3173H60.9766L55.808 17.396H55.6422V30.4146H51.5464V10.4878Z" fill="white"/>
<path d="M7 9H15.2102L20.8576 22.5938H21.1424L26.7898 9H35V33H28.5458V19.125H28.3559L22.9458 32.8125H19.0542L13.6441 19.0312H13.4542V33H7V9Z" fill="#0038FF"/>
</svg>
